<?xml version="1.0" standalone="no"?>
<!DOCTYPE svg PUBLIC "-//W3C//DTD SVG 20010904//EN"
 "http://www.w3.org/TR/2001/REC-SVG-20010904/DTD/svg10.dtd">
<svg version="1.0" xmlns="http://www.w3.org/2000/svg"
 width="700.000000pt" height="700.000000pt" viewBox="0 0 700.000000 700.000000"
 preserveAspectRatio="xMidYMid meet">
<metadata>
Created by potrace 1.14, written by Peter Selinger 2001-2017
</metadata>
<g transform="translate(0.000000,700.000000) scale(0.100000,-0.100000)"
fill="#000000" stroke="none">
<path d="M3435 6982 c-16 -10 -48 -41 -70 -68 -40 -50 -181 -193 -225 -229
-86 -70 -169 -128 -336 -238 -188 -123 -297 -205 -385 -288 -63 -60 -166 -190
-213 -269 -22 -36 -40 -66 -42 -68 -1 -2 -46 -5 -99 -7 -239 -10 -410 -61
-725 -217 -124 -61 -256 -125 -295 -143 -123 -56 -324 -116 -438 -131 -55 -7
-106 -33 -130 -65 -32 -44 -31 -87 2 -177 69 -186 102 -365 116 -627 11 -201
16 -291 20 -315 2 -14 7 -50 10 -80 18 -148 69 -310 148 -464 50 -98 50 -99
34 -129 -129 -224 -183 -420 -202 -737 -3 -47 -7 -130 -10 -185 -13 -248 -45
-425 -111 -611 -39 -112 -41 -137 -14 -181 28 -46 56 -61 150 -78 219 -41 350
-89 635 -232 395 -198 547 -247 809 -258 54 -2 99 -5 101 -7 1 -2 15 -25 31
-52 45 -79 135 -196 205 -265 94 -95 192 -170 404 -309 294 -193 398 -280 580
-484 38 -43 59 -58 87 -63 61 -11 89 2 148 68 183 205 279 285 565 472 209
137 313 216 409 311 74 73 163 187 210 270 16 27 30 50 32 52 1 2 47 5 102 7
55 3 111 6 124 8 13 3 43 8 68 12 154 24 290 77 589 225 302 150 451 207 636
239 97 18 103 19 124 30 30 16 60 59 67 96 4 25 -4 62 -30 137 -33 96 -69 233
-80 303 -18 117 -25 185 -31 315 -9 159 -14 249 -21 315 -19 191 -73 378 -155
535 l-51 98 51 102 c52 101 113 270 125 344 3 21 8 41 10 45 2 3 7 35 11 71 4
36 9 73 10 82 3 15 8 95 20 318 13 232 45 415 105 591 22 63 40 124 40 134 0
10 -9 38 -20 61 -23 47 -60 67 -143 78 -81 11 -267 63 -358 99 -47 19 -198 91
-336 160 -248 122 -405 184 -529 206 -111 20 -138 23 -231 25 -78 3 -96 6
-108 22 -8 10 -15 23 -15 27 0 21 -85 130 -113 148 -95 57 -218 -23 -203 -132
3 -20 23 -63 44 -95 68 -103 67 -99 35 -152 -58 -96 -65 -130 -36 -189 21 -46
67 -73 121 -73 58 0 92 25 138 103 21 34 41 64 45 67 5 3 31 5 59 4 231 -9
368 -52 706 -224 106 -53 227 -112 270 -130 90 -37 266 -96 318 -106 20 -3 36
-7 36 -8 0 0 -9 -33 -20 -71 -11 -39 -23 -83 -26 -100 -3 -16 -9 -48 -14 -71
-5 -22 -12 -67 -15 -100 -3 -32 -8 -68 -10 -80 -2 -11 -7 -72 -10 -135 -14
-284 -26 -412 -50 -532 -11 -56 -58 -183 -90 -247 -53 -104 -51 -102 -141
-104 -57 -1 -88 -7 -110 -20 -62 -37 -83 -110 -50 -177 28 -57 58 -72 155 -75
100 -4 94 1 158 -131 44 -93 87 -239 97 -332 16 -144 21 -208 31 -421 3 -63 7
-126 10 -140 2 -14 7 -49 10 -79 4 -30 9 -63 11 -75 2 -12 7 -35 10 -52 3 -18
16 -72 29 -120 13 -49 23 -89 22 -90 -1 0 -56 -15 -122 -34 -66 -18 -124 -36
-130 -40 -5 -4 -42 -19 -81 -34 -39 -15 -161 -72 -270 -127 -345 -174 -445
-210 -629 -225 -134 -11 -144 -11 -153 -5 -4 3 -25 35 -46 69 -21 35 -53 72
-70 83 -66 40 -157 14 -189 -54 -25 -53 -21 -83 23 -164 l41 -74 -37 -60 c-53
-87 -142 -196 -209 -254 -67 -59 -241 -185 -254 -185 -5 0 -11 -3 -13 -8 -1
-4 -48 -36 -103 -71 -145 -92 -308 -217 -403 -310 l-82 -80 -58 57 c-133 130
-199 181 -443 343 -357 237 -449 319 -564 509 l-36 59 41 76 c44 79 49 121 21
173 -31 59 -136 81 -191 42 -16 -11 -46 -49 -66 -83 -21 -34 -39 -64 -41 -67
-2 -2 -34 -3 -71 -2 -222 6 -353 47 -688 217 -260 132 -379 181 -555 229 l-76
21 23 90 c45 172 64 328 79 635 9 176 18 263 40 359 21 89 51 172 92 254 48
97 56 103 133 101 141 -5 218 88 166 198 -25 53 -68 72 -160 74 -90 1 -88 0
-140 104 -57 111 -100 253 -111 365 -3 33 -8 74 -10 90 -2 17 -6 80 -10 140
-19 359 -35 483 -88 690 l-13 50 80 23 c45 12 89 24 98 26 54 14 233 93 443
196 315 154 325 158 470 194 109 27 296 39 302 20 12 -35 93 -141 116 -152 86
-41 180 10 193 106 5 40 -5 69 -49 144 l-28 46 22 39 c39 70 112 166 173 228
83 84 158 141 381 288 225 147 342 237 448 341 l78 77 45 -47 c25 -25 60 -52
78 -59 100 -42 209 58 178 163 -6 20 -33 60 -60 87 -26 28 -72 79 -102 113
-30 35 -66 69 -80 76 -39 19 -92 18 -125 -2z"/>
<path d="M4105 6424 c-123 -63 -80 -254 58 -254 78 0 137 58 137 135 0 101
-104 164 -195 119z"/>
<path d="M3425 6075 c-196 -105 -429 -313 -569 -508 -75 -105 -182 -313 -222
-432 -15 -44 -29 -82 -30 -84 -2 -2 -25 2 -51 8 -182 41 -443 48 -643 15 -260
-42 -628 -201 -665 -287 -14 -32 -14 -240 -1 -297 4 -14 8 -38 10 -55 33 -282
187 -620 390 -858 l67 -77 -66 -76 c-171 -196 -310 -471 -370 -735 -26 -116
-41 -255 -41 -373 1 -80 4 -99 22 -123 56 -75 368 -209 600 -257 116 -24 154
-28 304 -31 161 -3 260 6 399 36 45 10 60 3 61 -28 0 -23 72 -196 116 -280
101 -192 253 -381 424 -526 59 -50 246 -176 286 -193 50 -21 98 -10 180 41
350 219 614 543 739 910 15 44 28 81 30 83 1 1 23 -2 49 -8 50 -11 75 -15 176
-29 64 -9 356 -7 395 2 11 2 43 8 70 11 130 18 346 89 495 162 110 54 165 95
178 132 10 29 9 227 -2 282 -2 14 -7 48 -11 75 -33 277 -199 634 -397 857
l-59 67 66 78 c120 140 221 309 288 479 45 114 90 276 102 364 1 8 5 38 9 65
13 88 16 259 5 292 -14 45 -51 73 -181 136 -151 74 -310 128 -443 152 -16 2
-41 7 -55 10 -145 30 -433 25 -608 -11 -41 -8 -75 -14 -76 -12 -2 2 -15 39
-30 83 -56 163 -145 328 -254 475 -162 216 -503 485 -619 488 -12 0 -43 -10
-68 -23z m182 -348 c168 -126 307 -287 408 -472 47 -85 101 -220 110 -270 5
-29 3 -31 -77 -69 -86 -40 -161 -87 -261 -163 -54 -42 -60 -44 -102 -37 -25 3
-45 11 -46 18 0 6 -2 49 -3 96 -2 98 -20 141 -67 166 -43 22 -62 24 -105 12
-75 -20 -98 -63 -99 -186 -1 -50 -4 -94 -6 -96 -2 -2 -24 -7 -48 -10 -40 -5
-48 -2 -85 28 -64 52 -204 140 -283 177 -40 19 -72 40 -72 46 -1 22 40 134 81
223 83 179 233 370 393 500 75 60 145 110 157 110 3 0 51 -33 105 -73z m-1271
-912 c73 -6 82 -7 172 -26 115 -23 302 -98 405 -162 l39 -24 -26 -16 c-14 -9
-28 -17 -31 -17 -10 0 -127 -81 -180 -124 -45 -37 -97 -89 -181 -183 l-29 -32
-80 47 c-88 51 -142 59 -191 27 -61 -39 -81 -122 -45 -182 18 -29 82 -76 154
-112 32 -17 32 -17 6 -78 -25 -58 -67 -229 -73 -298 -2 -27 -5 -87 -5 -132
l-1 -82 -51 30 c-407 240 -675 666 -706 1124 l-5 80 72 33 c40 17 78 32 84 32
7 0 16 4 22 8 27 25 252 78 374 88 36 3 66 7 67 8 3 3 137 -2 209 -9z m2619 0
c130 -13 250 -43 390 -98 149 -59 145 -55 145 -107 0 -38 -9 -107 -24 -195
-23 -125 -92 -312 -162 -437 -113 -203 -318 -410 -518 -525 l-56 -32 -1 82
c-1 145 -21 265 -65 389 -38 109 -45 96 80 170 81 48 108 127 66 195 -49 82
-121 88 -236 20 l-79 -46 -23 27 c-112 131 -247 243 -407 337 -14 9 -5 17 57
52 149 86 370 154 548 169 41 4 76 8 78 9 4 3 133 -3 207 -10z m-1312 -369
c45 -6 166 -36 187 -46 8 -4 54 -26 101 -49 238 -116 424 -346 495 -616 37
-140 38 -326 1 -465 -30 -114 -71 -208 -131 -298 -291 -438 -881 -559 -1322
-270 -225 149 -389 408 -421 668 -33 264 33 506 194 717 146 192 396 336 623
359 30 4 56 7 58 9 5 4 171 -3 215 -9z m-1628 -1190 c71 -47 218 -122 287
-147 31 -11 40 -20 53 -58 8 -25 12 -47 8 -49 -39 -14 -153 -95 -170 -122 -57
-84 2 -198 107 -205 33 -2 55 6 123 46 l82 48 33 -37 c21 -25 31 -44 27 -58
-12 -54 -20 -172 -18 -306 2 -165 10 -150 -87 -168 -302 -58 -608 -14 -923
132 l-29 13 6 85 c8 106 9 115 35 223 56 234 179 460 356 653 12 14 17 12 110
-50z m3146 -26 c133 -158 230 -348 283 -553 30 -115 34 -141 42 -247 l6 -85
-63 -29 c-81 -37 -219 -87 -219 -81 0 3 -8 1 -18 -4 -26 -14 -165 -41 -251
-48 -136 -12 -282 -6 -401 17 -96 18 -88 3 -87 168 1 138 -6 253 -18 305 -4
15 4 33 26 60 30 37 32 38 56 21 14 -9 54 -31 90 -50 52 -27 73 -32 102 -28
102 16 153 123 98 205 -18 27 -130 107 -171 122 -5 2 -1 24 8 49 13 34 25 48
44 53 45 11 225 104 312 160 95 62 77 66 161 -35z m-2303 -779 c95 -66 311
-146 452 -166 25 -4 47 -8 48 -10 2 -2 5 -48 6 -102 2 -63 8 -106 17 -121 34
-56 128 -82 185 -51 49 26 69 75 71 174 1 50 2 93 2 96 1 4 22 10 49 14 129
18 303 79 416 145 38 22 71 38 73 36 3 -2 5 -33 5 -68 2 -408 -201 -824 -531
-1090 -98 -79 -149 -110 -164 -102 -64 38 -180 135 -262 218 -234 239 -380
556 -402 870 -6 95 -7 103 -4 149 1 32 5 33 39 8z"/>
<path d="M3425 4179 c-135 -18 -234 -58 -335 -135 -125 -95 -234 -259 -255
-386 -3 -18 -8 -42 -12 -53 -7 -24 -6 -179 2 -215 3 -14 7 -34 9 -45 18 -90
82 -214 151 -293 325 -368 919 -288 1129 153 187 393 -31 853 -455 959 -76 19
-163 24 -234 15z m201 -291 c149 -50 251 -169 277 -324 33 -189 -81 -382 -267
-451 -58 -22 -185 -25 -249 -7 -185 55 -310 237 -294 428 23 263 285 438 533
354z"/>
</g>
</svg>
